<mxfile host="Electron" modified="2025-03-23T19:49:58.373Z" agent="Mozilla/5.0 (X11; Linux x86_64) AppleWebKit/537.36 (KHTML, like Gecko) draw.io/21.2.8 Chrome/112.0.5615.165 Electron/24.2.0 Safari/537.36" etag="ofZOlNagNGbeYyqp263A" version="21.2.8" type="device" pages="2">
  <diagram name="Spark Architecture" id="pAY0WtRGm43nQi_QHyoY">
    <mxGraphModel dx="1120" dy="526" grid="1" gridSize="10" guides="1" tooltips="1" connect="1" arrows="1" fold="1" page="1" pageScale="1" pageWidth="850" pageHeight="1100" math="0" shadow="0">
      <root>
        <mxCell id="0" />
        <mxCell id="1" parent="0" />
        <mxCell id="no8Kn8oNY9jxpT-1hJtn-5" value="" style="rounded=0;whiteSpace=wrap;html=1;" parent="1" vertex="1">
          <mxGeometry x="170" y="240" width="540" height="120" as="geometry" />
        </mxCell>
        <mxCell id="no8Kn8oNY9jxpT-1hJtn-1" value="Java" style="rounded=0;whiteSpace=wrap;html=1;" parent="1" vertex="1">
          <mxGeometry x="330" y="290" width="110" height="60" as="geometry" />
        </mxCell>
        <mxCell id="no8Kn8oNY9jxpT-1hJtn-10" value="R" style="rounded=0;whiteSpace=wrap;html=1;" parent="1" vertex="1">
          <mxGeometry x="450" y="290" width="110" height="60" as="geometry" />
        </mxCell>
        <mxCell id="no8Kn8oNY9jxpT-1hJtn-11" value="Scala" style="rounded=0;whiteSpace=wrap;html=1;" parent="1" vertex="1">
          <mxGeometry x="580" y="290" width="110" height="60" as="geometry" />
        </mxCell>
        <mxCell id="no8Kn8oNY9jxpT-1hJtn-12" value="Python" style="rounded=0;whiteSpace=wrap;html=1;" parent="1" vertex="1">
          <mxGeometry x="190" y="290" width="110" height="60" as="geometry" />
        </mxCell>
        <mxCell id="no8Kn8oNY9jxpT-1hJtn-13" value="Spark Core" style="text;html=1;strokeColor=none;fillColor=none;align=center;verticalAlign=middle;whiteSpace=wrap;rounded=0;" parent="1" vertex="1">
          <mxGeometry x="380" y="250" width="60" height="30" as="geometry" />
        </mxCell>
      </root>
    </mxGraphModel>
  </diagram>
  <diagram id="aYYJErNhGuTUjeHMlBi0" name="Catalyst Optimizer">
    <mxGraphModel dx="1120" dy="526" grid="1" gridSize="10" guides="1" tooltips="1" connect="1" arrows="1" fold="1" page="1" pageScale="1" pageWidth="850" pageHeight="1100" math="0" shadow="0">
      <root>
        <mxCell id="0" />
        <mxCell id="1" parent="0" />
        <mxCell id="PwygRhdSTjS_AoWbd7Bd-5" style="edgeStyle=orthogonalEdgeStyle;rounded=0;orthogonalLoop=1;jettySize=auto;html=1;exitX=1;exitY=0.5;exitDx=0;exitDy=0;entryX=0;entryY=0.5;entryDx=0;entryDy=0;" edge="1" parent="1" source="PwygRhdSTjS_AoWbd7Bd-1" target="PwygRhdSTjS_AoWbd7Bd-4">
          <mxGeometry relative="1" as="geometry" />
        </mxCell>
        <mxCell id="PwygRhdSTjS_AoWbd7Bd-1" value="Spark SQL" style="rounded=0;whiteSpace=wrap;html=1;" vertex="1" parent="1">
          <mxGeometry x="110" y="350" width="110" height="30" as="geometry" />
        </mxCell>
        <mxCell id="PwygRhdSTjS_AoWbd7Bd-6" style="edgeStyle=orthogonalEdgeStyle;rounded=0;orthogonalLoop=1;jettySize=auto;html=1;exitX=1;exitY=0.5;exitDx=0;exitDy=0;" edge="1" parent="1" source="PwygRhdSTjS_AoWbd7Bd-2">
          <mxGeometry relative="1" as="geometry">
            <mxPoint x="340" y="435" as="targetPoint" />
          </mxGeometry>
        </mxCell>
        <mxCell id="PwygRhdSTjS_AoWbd7Bd-2" value="Spark SQL" style="rounded=0;whiteSpace=wrap;html=1;" vertex="1" parent="1">
          <mxGeometry x="110" y="420" width="110" height="30" as="geometry" />
        </mxCell>
        <mxCell id="PwygRhdSTjS_AoWbd7Bd-7" style="edgeStyle=orthogonalEdgeStyle;rounded=0;orthogonalLoop=1;jettySize=auto;html=1;exitX=1;exitY=0.5;exitDx=0;exitDy=0;entryX=0;entryY=0.5;entryDx=0;entryDy=0;" edge="1" parent="1" source="PwygRhdSTjS_AoWbd7Bd-3" target="PwygRhdSTjS_AoWbd7Bd-4">
          <mxGeometry relative="1" as="geometry" />
        </mxCell>
        <mxCell id="PwygRhdSTjS_AoWbd7Bd-3" value="Dataframe API" style="rounded=0;whiteSpace=wrap;html=1;" vertex="1" parent="1">
          <mxGeometry x="110" y="490" width="110" height="30" as="geometry" />
        </mxCell>
        <mxCell id="PwygRhdSTjS_AoWbd7Bd-11" style="edgeStyle=orthogonalEdgeStyle;rounded=0;orthogonalLoop=1;jettySize=auto;html=1;exitX=1;exitY=0.5;exitDx=0;exitDy=0;" edge="1" parent="1" source="PwygRhdSTjS_AoWbd7Bd-4">
          <mxGeometry relative="1" as="geometry">
            <mxPoint x="550" y="435" as="targetPoint" />
          </mxGeometry>
        </mxCell>
        <mxCell id="PwygRhdSTjS_AoWbd7Bd-4" value="Catalyst Optimizer / Spark SQL Engine" style="rounded=0;whiteSpace=wrap;html=1;" vertex="1" parent="1">
          <mxGeometry x="340" y="405" width="120" height="60" as="geometry" />
        </mxCell>
        <mxCell id="PwygRhdSTjS_AoWbd7Bd-15" style="edgeStyle=orthogonalEdgeStyle;rounded=0;orthogonalLoop=1;jettySize=auto;html=1;exitX=0.5;exitY=1;exitDx=0;exitDy=0;entryX=1;entryY=0.5;entryDx=0;entryDy=0;" edge="1" parent="1" source="PwygRhdSTjS_AoWbd7Bd-8" target="PwygRhdSTjS_AoWbd7Bd-10">
          <mxGeometry relative="1" as="geometry" />
        </mxCell>
        <mxCell id="PwygRhdSTjS_AoWbd7Bd-16" style="edgeStyle=orthogonalEdgeStyle;rounded=0;orthogonalLoop=1;jettySize=auto;html=1;exitX=0.5;exitY=1;exitDx=0;exitDy=0;entryX=0;entryY=0.5;entryDx=0;entryDy=0;" edge="1" parent="1" source="PwygRhdSTjS_AoWbd7Bd-8" target="PwygRhdSTjS_AoWbd7Bd-9">
          <mxGeometry relative="1" as="geometry" />
        </mxCell>
        <mxCell id="PwygRhdSTjS_AoWbd7Bd-8" value="" style="whiteSpace=wrap;html=1;aspect=fixed;" vertex="1" parent="1">
          <mxGeometry x="630" y="372" width="30" height="30" as="geometry" />
        </mxCell>
        <mxCell id="PwygRhdSTjS_AoWbd7Bd-9" value="" style="whiteSpace=wrap;html=1;aspect=fixed;" vertex="1" parent="1">
          <mxGeometry x="680" y="432" width="30" height="30" as="geometry" />
        </mxCell>
        <mxCell id="PwygRhdSTjS_AoWbd7Bd-10" value="" style="whiteSpace=wrap;html=1;aspect=fixed;" vertex="1" parent="1">
          <mxGeometry x="570" y="432" width="30" height="30" as="geometry" />
        </mxCell>
        <mxCell id="PwygRhdSTjS_AoWbd7Bd-17" value="RDD" style="text;html=1;align=center;verticalAlign=middle;resizable=0;points=[];autosize=1;strokeColor=none;fillColor=none;" vertex="1" parent="1">
          <mxGeometry x="620" y="352" width="50" height="30" as="geometry" />
        </mxCell>
        <mxCell id="PwygRhdSTjS_AoWbd7Bd-18" value="Java Byte&lt;br&gt;Code" style="text;html=1;align=center;verticalAlign=middle;resizable=0;points=[];autosize=1;strokeColor=none;fillColor=none;" vertex="1" parent="1">
          <mxGeometry x="680" y="382" width="80" height="40" as="geometry" />
        </mxCell>
        <mxCell id="PwygRhdSTjS_AoWbd7Bd-19" value="Physical plan" style="text;html=1;align=center;verticalAlign=middle;resizable=0;points=[];autosize=1;strokeColor=none;fillColor=none;" vertex="1" parent="1">
          <mxGeometry x="600" y="470" width="90" height="30" as="geometry" />
        </mxCell>
      </root>
    </mxGraphModel>
  </diagram>
</mxfile>
